<?xml version="1.0" encoding="utf-8"?>
<!-- Generator: Adobe Illustrator 23.0.3, SVG Export Plug-In . SVG Version: 6.00 Build 0)  -->
<svg version="1.1" id="Layer_1" xmlns:inkpad="http://taptrix.com/inkpad/svg_extensions"
	 xmlns="http://www.w3.org/2000/svg" xmlns:xlink="http://www.w3.org/1999/xlink" x="0px" y="0px" viewBox="0 0 701 121"
	 style="enable-background:new 0 0 701 121;" xml:space="preserve">
<style type="text/css">
	.st0{fill:#FFFFFF;}
	.st1{fill:#54C3BB;}
	.st2{fill:#419B96;}
	.st3{fill:#ED1C24;}
	.st4{fill:#C4161C;}
	.st5{fill:#A70E13;}
	.st6{fill:#8C8C8C;}
	.st7{fill:#4D4D4E;}
</style>
<g>
	<rect x="0.1" y="0" class="st0" width="701" height="121"/>
	<g id="g10" inkpad:layerName="g10">
		<g>
			<path class="st1" d="M162.2,40.1c10.7-10.7,28.8-12.4,41.2,0c5.5,5.5,8.3,12.8,8.3,20.3v0.5c0,7.5-2.7,14.8-8.3,20.3
				c-12.4,12.4-30.5,10.7-41.2,0c-14.5-14.5-20.6-20.6-20.6-20.6S147.7,54.5,162.2,40.1z M100.1,60.6c0,0,12.3,12.3,41.4,41.4
				c21.5,21.5,57.8,25,82.8,0c11.1-11.1,16.6-25.8,16.6-40.9v-1.1c0-15.1-5.5-29.7-16.6-40.9c-25-25-61.3-21.5-82.8,0
				C112.4,48.4,100.1,60.6,100.1,60.6L100.1,60.6"/>
			<path class="st2" d="M141.6,60.6c0,0,6.1,6.1,20.6,20.6c10.7,10.7,28.8,12.4,41.2,0c5.5-5.5,8.3-12.8,8.3-20.3v-0.3h29.2v0.5
				c0,15.1-5.5,29.7-16.6,40.9c-25,25-61.3,21.5-82.8,0c-29.1-29.1-41.4-41.4-41.4-41.4L141.6,60.6"/>
			<path class="st3" d="M100.1,60.6c0,0-6.1,6.1-20.6,20.6c-10.7,10.7-28.8,12.4-41.2,0c-5.5-5.5-8.3-12.8-8.3-20.3v-0.5
				c0-7.5,2.7-14.8,8.3-20.3c12.4-12.4,30.5-10.7,41.2,0C94,54.5,100.1,60.6,100.1,60.6z M141.6,60.6L141.6,60.6
				c0,0-12.3-12.3-41.4-41.4c-21.5-21.5-57.8-25-82.8,0C6.3,30.4,0.8,45,0.8,60.1v1.1c0,15.1,5.5,29.7,16.6,40.9
				c25,25,61.3,21.5,82.8,0C129.3,72.9,141.6,60.6,141.6,60.6"/>
			<path class="st4" d="M100.1,60.6c0,0-6.1,6.1-20.6,20.6c-10.7,10.7-28.8,12.4-41.2,0c-5.5-5.5-8.3-12.8-8.3-20.3v-0.3H0.8v0.5
				c0,15.1,5.5,29.7,16.6,40.9c25,25,61.3,21.5,82.8,0c29.1-29.1,41.4-41.4,41.4-41.4H100.1"/>
			<path class="st5" d="M141.6,60.6L141.6,60.6h-41.5c0,0,6.4,6.4,20.8,20.8C135.2,67,141.6,60.6,141.6,60.6"/>
			<path class="st6" d="M486.3,25.1c1.2,0,2-0.6,2-1.7c0-1.1-0.8-1.6-2-1.6h-2.8v3.3H486.3z M485.9,19.7c1.3,0,2-0.7,2-1.6
				c0-0.9-0.7-1.5-2-1.5h-2.4v3.1H485.9z M480.7,14.3h5.4c3.2,0,4.6,1.5,4.6,3.5c0,1.4-0.7,2.3-2,2.8c1.4,0.4,2.4,1.4,2.4,3
				c0,2.4-1.9,3.8-4.8,3.8h-5.7V14.3"/>
			<path class="st6" d="M494,14.3h2.8v10.6h6.5v2.4H494V14.3"/>
			<path class="st6" d="M511.6,25.2c2.3,0,3.9-1.7,3.9-4.4c0-2.6-1.6-4.4-3.9-4.4c-2.3,0-3.9,1.7-3.9,4.4
				C507.7,23.5,509.3,25.2,511.6,25.2z M511.6,14c4,0,6.8,2.8,6.8,6.7c0,4-2.8,6.8-6.8,6.8c-4,0-6.8-2.9-6.8-6.8
				C504.8,16.9,507.6,14,511.6,14"/>
			<path class="st6" d="M527.2,25.2c2.3,0,3.9-1.7,3.9-4.4c0-2.6-1.6-4.4-3.9-4.4c-2.3,0-3.9,1.7-3.9,4.4
				C523.3,23.5,524.9,25.2,527.2,25.2z M527.2,14c4,0,6.8,2.8,6.8,6.7c0,4-2.8,6.8-6.8,6.8c-4,0-6.8-2.9-6.8-6.8
				C520.4,16.9,523.2,14,527.2,14"/>
			<path class="st6" d="M541.1,25.1c2.7,0,4.1-1.6,4.1-4.3c0-2.6-1.5-4.2-4.1-4.2h-1.7v8.5H541.1z M536.6,14.3h4.3
				c4.7,0,7.2,2.4,7.2,6.5c0,4.2-2.4,6.6-7.2,6.6h-4.3V14.3"/>
			<path class="st6" d="M486.1,42c1.5,0,2.2-0.8,2.2-1.9c0-1.1-0.7-1.9-2.2-1.9h-2.7V42H486.1z M480.7,35.9h5.5c3.8,0,5,2.1,5,4.1
				c0,2.1-1.3,4.2-5,4.2h-2.7V49h-2.8V35.9"/>
			<path class="st6" d="M493.6,35.9h2.8v10.6h6.5V49h-9.3V35.9"/>
			<path class="st6" d="M509.2,44.4h3.5L511,39h0L509.2,44.4z M509.4,35.9h3.2l4.7,13.1h-3l-0.8-2.4h-5l-0.8,2.4h-3L509.4,35.9"/>
			<path class="st6" d="M520.3,45.5c1.2,0.7,2.5,1.2,3.8,1.2c1.4,0,2.1-0.6,2.1-1.4c0-2.4-7.1-0.8-7.1-5.8c0-2.1,1.8-3.9,4.8-3.9
				c1.7,0,3.2,0.4,4.7,1.1l-1,2.2c-1.2-0.6-2.4-0.9-3.5-0.9c-1.3,0-2,0.6-2,1.4c0,2.4,7.1,0.7,7.1,5.8c0,2.2-1.7,3.9-5,3.9
				c-2,0-4-0.7-5.2-1.5L520.3,45.5"/>
			<path class="st6" d="M531.9,35.9h2.8l3.9,5.6l4-5.6h2.8V49h-2.7v-9l-4.1,5.6l-4.1-5.6v9h-2.7V35.9"/>
			<path class="st6" d="M552.1,44.4h3.5l-1.8-5.3h0L552.1,44.4z M552.3,35.9h3.2l4.7,13.1h-3l-0.8-2.4h-5l-0.8,2.4h-3L552.3,35.9"/>
			<path class="st6" d="M481.5,67.1c1.2,0.7,2.5,1.2,3.8,1.2c1.4,0,2.1-0.6,2.1-1.4c0-2.4-7.1-0.8-7.1-5.8c0-2.1,1.8-3.9,4.8-3.9
				c1.7,0,3.2,0.4,4.7,1.1l-1,2.2c-1.2-0.6-2.4-0.9-3.5-0.9c-1.3,0-2,0.6-2,1.4c0,2.4,7.1,0.7,7.1,5.8c0,2.2-1.7,3.9-5,3.9
				c-2,0-4-0.7-5.2-1.5L481.5,67.1"/>
			<path class="st6" d="M496.4,60h-4.3v-2.5h11.4V60h-4.3v10.6h-2.8V60"/>
			<path class="st6" d="M505.7,57.5h9.5V60h-6.7v2.9h6V65h-6v3.1h6.8v2.5h-9.6V57.5"/>
			<path class="st6" d="M518.3,57.5h2.8l3.9,5.6l4-5.6h2.8v13.1h-2.7v-9l-4.1,5.6l-4.1-5.6v9h-2.7V57.5"/>
			<path class="st6" d="M546.2,57.2c1.8,0,3.4,0.6,4.7,1.7l-1.6,1.9c-0.9-0.7-1.9-1.2-3.2-1.2c-2.4,0-4,1.7-4,4.3
				c0,2.7,1.6,4.4,4,4.4c1.3,0,2.4-0.5,3.3-1.3l1.7,1.8c-1.4,1.3-3,2-5.1,2c-4,0-6.7-2.9-6.7-6.9C539.4,60.1,542.2,57.2,546.2,57.2"
				/>
			<path class="st6" d="M553.4,57.5h9.5V60h-6.7v2.9h6V65h-6v3.1h6.8v2.5h-9.6V57.5"/>
			<path class="st6" d="M566,57.5h2.8v10.6h6.5v2.4H566V57.5"/>
			<path class="st6" d="M577.6,57.5h2.8v10.6h6.5v2.4h-9.3V57.5"/>
			<path class="st6" d="M590.2,67.1c1.2,0.7,2.5,1.2,3.8,1.2c1.4,0,2.1-0.6,2.1-1.4c0-2.4-7.1-0.8-7.1-5.8c0-2.1,1.8-3.9,4.8-3.9
				c1.7,0,3.2,0.4,4.7,1.1l-1,2.2c-1.2-0.6-2.4-0.9-3.5-0.9c-1.3,0-2,0.6-2,1.4c0,2.4,7.1,0.7,7.1,5.8c0,2.2-1.7,3.9-5,3.9
				c-2,0-4-0.7-5.2-1.5L590.2,67.1"/>
			<path class="st6" d="M487,90c2.3,0,3.9-1.7,3.9-4.4c0-2.6-1.6-4.4-3.9-4.4c-2.3,0-3.9,1.7-3.9,4.4C483.1,88.3,484.7,90,487,90z
				 M487,78.8c4,0,6.8,2.8,6.8,6.7c0,4-2.8,6.8-6.8,6.8c-4,0-6.8-2.9-6.8-6.8C480.2,81.7,483,78.8,487,78.8"/>
			<path class="st6" d="M502.1,85.2c1.5,0,2.2-0.8,2.2-1.9c0-1.1-0.7-1.9-2.2-1.9h-2.9v3.8H502.1z M496.4,79.1h5.8
				c3.7,0,5,2.1,5,4.1c0,1.5-0.8,2.9-2.4,3.6l2.5,5.3h-3l-2-4.9h-3v4.9h-2.8V79.1"/>
			<path class="st6" d="M516.2,78.8c1.9,0,3.5,0.7,4.8,1.6l-1.5,1.9c-1-0.7-2-1.1-3.3-1.1c-2.4,0-4,1.8-4,4.3c0,2.7,1.5,4.4,4,4.4
				c0.9,0,1.7-0.2,2.3-0.5v-2.6h-3v-1.9h5.5v6c-1.3,1-3,1.5-4.9,1.5c-4.1,0-6.8-2.8-6.8-6.9C509.3,81.8,512,78.8,516.2,78.8"/>
			<path class="st6" d="M527.5,87.6h3.5l-1.8-5.3h0L527.5,87.6z M527.7,79.1h3.2l4.7,13.1h-3l-0.8-2.4h-5l-0.8,2.4h-3L527.7,79.1"/>
			<path class="st6" d="M537.7,79.1h2.7l5.8,8.6v-8.6h2.7v13.1h-2.7l-5.8-8.6v8.6h-2.7V79.1"/>
			<path class="st6" d="M552.9,88.7c1.2,0.7,2.5,1.2,3.8,1.2c1.4,0,2.1-0.6,2.1-1.4c0-2.4-7.1-0.8-7.1-5.8c0-2.1,1.8-3.9,4.8-3.9
				c1.7,0,3.2,0.4,4.7,1.1l-1,2.2c-1.2-0.6-2.4-0.9-3.5-0.9c-1.3,0-2,0.6-2,1.4c0,2.4,7.1,0.7,7.1,5.8c0,2.2-1.7,3.9-5,3.9
				c-2,0-4-0.7-5.2-1.5L552.9,88.7"/>
			<path class="st6" d="M483.9,107.7c-0.8,0.5-1.3,1.2-1.3,2.1c0,1.2,0.9,2,2.4,2c1,0,1.9-0.3,2.6-0.9
				C486.3,109.9,485.1,108.8,483.9,107.7z M482.6,106.3c-0.5-0.7-0.9-1.5-0.9-2.5c0-1.9,1.6-3.4,3.8-3.4c1.7,0,2.9,0.8,3.9,1.8
				l-1.8,1.5c-0.6-0.6-1.3-1-2-1c-0.8,0-1.3,0.6-1.3,1.2c0,0.7,0.5,1.3,1.1,1.9c1.1,1.1,2.3,2.1,3.6,3.1c0.3-0.7,0.4-1.5,0.4-2.3
				h2.5c0,1.4-0.4,2.7-1,3.8c0.7,0.5,1.5,1,2.2,1.6l-1.5,1.9c-0.7-0.5-1.5-1-2.2-1.6c-1.2,1-2.8,1.7-4.6,1.7c-3,0-4.8-1.9-4.8-3.9
				C480.1,108.4,481.2,107.1,482.6,106.3"/>
			<path class="st6" d="M503.8,103.2h-4.3v-2.5h11.5v2.5h-4.3v10.6h-2.8V103.2"/>
			<path class="st6" d="M513.1,100.7h2.8v13.1h-2.8V100.7"/>
			<path class="st6" d="M519.8,110.3c1.2,0.7,2.5,1.2,3.8,1.2c1.4,0,2.1-0.6,2.1-1.4c0-2.4-7.1-0.8-7.1-5.8c0-2.1,1.8-3.9,4.8-3.9
				c1.7,0,3.2,0.4,4.7,1.1l-1,2.2c-1.2-0.6-2.4-0.9-3.5-0.9c-1.3,0-2,0.6-2,1.4c0,2.4,7.1,0.7,7.1,5.8c0,2.2-1.7,3.9-5,3.9
				c-2,0-4-0.7-5.2-1.5L519.8,110.3"/>
			<path class="st6" d="M531.9,110.3c1.2,0.7,2.5,1.2,3.8,1.2c1.4,0,2.1-0.6,2.1-1.4c0-2.4-7.1-0.8-7.1-5.8c0-2.1,1.8-3.9,4.8-3.9
				c1.7,0,3.2,0.4,4.7,1.1l-1,2.2c-1.2-0.6-2.4-0.9-3.5-0.9c-1.3,0-2,0.6-2,1.4c0,2.4,7.1,0.7,7.1,5.8c0,2.2-1.7,3.9-5,3.9
				c-2,0-4-0.7-5.2-1.5L531.9,110.3"/>
			<path class="st6" d="M543.3,100.7h2.8v8.1c0,1.8,1.1,2.8,2.7,2.8c1.6,0,2.7-1,2.7-2.8v-8.1h2.8v8.1c0,3.5-2.3,5.2-5.5,5.2
				c-3.2,0-5.5-1.7-5.5-5.2V100.7"/>
			<path class="st6" d="M557.6,100.7h9.5v2.5h-6.7v2.9h6v2.2h-6v3.1h6.8v2.5h-9.6V100.7"/>
			<path class="st6" d="M570.7,110.3c1.2,0.7,2.5,1.2,3.8,1.2c1.4,0,2.1-0.6,2.1-1.4c0-2.4-7.1-0.8-7.1-5.8c0-2.1,1.8-3.9,4.8-3.9
				c1.7,0,3.2,0.4,4.7,1.1l-1,2.2c-1.2-0.6-2.4-0.9-3.5-0.9c-1.3,0-2,0.6-2,1.4c0,2.4,7.1,0.7,7.1,5.8c0,2.2-1.7,3.9-5,3.9
				c-2,0-4-0.7-5.2-1.5L570.7,110.3"/>
			<path class="st7" d="M284.2,7c4.1,0,7.6,1.3,10.6,3.8l-3.5,4.3c-2-1.6-4.2-2.7-7.1-2.7c-5.4,0-8.9,3.8-8.9,9.6
				c0,6,3.5,9.9,8.9,9.9c3,0,5.3-1.1,7.3-3l3.8,4c-3.1,2.9-6.8,4.4-11.3,4.4c-8.9,0-15-6.4-15-15.3C268.9,13.3,275.2,7,284.2,7"/>
			<path class="st7" d="M306.9,32.8c1.8,0,3.2-0.8,4.2-1.9v-4.2c-3.5,0.2-6.7,1.1-6.7,3.8C304.3,31.9,305.3,32.8,306.9,32.8z
				 M311.1,23.3v-1.9c0-1.6-1-2.6-3-2.6c-2.1,0-4.4,0.8-7.2,2.2l-2.2-4.6c3-1.5,6.6-2.6,9.6-2.6c6.4,0,9,3.2,9,7.8v9.3
				c0,1.2,0.7,1.7,1.8,1.7v4.3c-4.3,0-6.1-0.6-7.4-2.8c-1.8,2-3.9,3.2-7,3.2c-3.9,0-6.6-2.4-6.6-6C298.1,26.4,302.7,23.9,311.1,23.3
				"/>
			<path class="st7" d="M322.7,14.3h5.9l0.3,2.6c1.6-1.7,4-3.1,6.8-3.1c5.1,0,7.1,3.1,7.1,8.1v14.9h-6.2v-15c0-2-0.8-3.3-2.9-3.3
				c-1.8,0-3.4,0.9-4.8,2.5v15.7h-6.3V14.3"/>
			<path class="st7" d="M355.4,32.8c1.8,0,3.2-0.8,4.2-1.9v-4.2c-3.5,0.2-6.7,1.1-6.7,3.8C352.9,31.9,353.9,32.8,355.4,32.8z
				 M359.6,23.3v-1.9c0-1.6-1-2.6-3-2.6c-2.1,0-4.4,0.8-7.2,2.2l-2.2-4.6c3.1-1.5,6.6-2.6,9.6-2.6c6.4,0,9,3.2,9,7.8v9.3
				c0,1.2,0.7,1.7,1.8,1.7v4.3c-4.3,0-6.1-0.6-7.4-2.8c-1.8,2-3.9,3.2-7,3.2c-3.9,0-6.6-2.4-6.6-6C346.7,26.4,351.2,23.9,359.6,23.3
				"/>
			<path class="st7" d="M385.2,30.3v-9.5c-1.3-1.5-2.8-2.3-4.6-2.3c-2.9,0-4.3,2.3-4.3,6.7c0,4.4,1.4,7.2,4.3,7.2
				C382.5,32.5,383.8,31.8,385.2,30.3z M370.1,25.3c0-7.6,3.5-11.5,8.7-11.5c2.5,0,4.8,1.1,6.4,3V5.2h6.2v31.5h-5.5l-0.4-2.6
				c-1.8,1.8-3.9,3.2-6.9,3.2C373.6,37.3,370.1,33.2,370.1,25.3"/>
			<path class="st7" d="M415.5,32.8c1.8,0,3.2-0.8,4.2-1.9v-4.2c-3.5,0.2-6.7,1.1-6.7,3.8C412.9,31.9,413.9,32.8,415.5,32.8z
				 M419.7,23.3v-1.9c0-1.6-1-2.6-3-2.6c-2.1,0-4.4,0.8-7.2,2.2l-2.2-4.6c3-1.5,6.6-2.6,9.6-2.6c6.4,0,9,3.2,9,7.8v9.3
				c0,1.2,0.7,1.7,1.8,1.7v4.3c-4.3,0-6.1-0.6-7.4-2.8c-1.8,2-3.9,3.2-7,3.2c-3.9,0-6.6-2.4-6.6-6C406.7,26.4,411.3,23.9,419.7,23.3
				"/>
			<path class="st7" d="M431.3,14.3h5.9l0.3,2.6c1.6-1.7,4-3.1,6.8-3.1c5.1,0,7.1,3.1,7.1,8.1v14.9h-6.2v-15c0-2-0.8-3.3-2.9-3.3
				c-1.8,0-3.4,0.9-4.8,2.5v15.7h-6.3V14.3"/>
			<path class="st7" d="M282.7,70.2c2.8,0,4.6-1.3,4.6-3.8c0-2.4-1.8-3.6-4.6-3.6h-6.3v7.4H282.7z M281.8,58.1
				c2.9,0,4.4-1.5,4.4-3.6c0-2-1.5-3.4-4.4-3.4h-5.4v7H281.8z M270.1,46h12.1c7.1,0,10.3,3.3,10.3,7.9c0,3-1.7,5.1-4.4,6.2
				c3.2,1,5.5,3.2,5.5,6.8c0,5.4-4.3,8.4-10.8,8.4h-12.7V46"/>
			<path class="st7" d="M298,43.7h6.3v31.5H298V43.7"/>
			<path class="st7" d="M319.5,71.1c3.1,0,4.9-2.8,4.9-7.2c0-4.1-1.9-6.9-4.9-6.9c-3,0-5,2.7-5,6.9
				C314.5,68.2,316.3,71.1,319.5,71.1z M319.5,52.3c6.4,0,11.3,4.6,11.3,11.5c0,7.4-4.6,12-11.3,12c-6.8,0-11.3-4.6-11.3-12
				C308.2,56.9,313.1,52.3,319.5,52.3"/>
			<path class="st7" d="M344.9,71.1c3.1,0,4.9-2.8,4.9-7.2c0-4.1-1.9-6.9-4.9-6.9c-3,0-5,2.7-5,6.9
				C339.9,68.2,341.7,71.1,344.9,71.1z M344.9,52.3c6.4,0,11.3,4.6,11.3,11.5c0,7.4-4.6,12-11.3,12c-6.8,0-11.3-4.6-11.3-12
				C333.6,56.9,338.5,52.3,344.9,52.3"/>
			<path class="st7" d="M374.3,68.8v-9.5c-1.3-1.5-2.8-2.3-4.6-2.3c-2.9,0-4.3,2.3-4.3,6.7c0,4.4,1.4,7.2,4.3,7.2
				C371.6,71,373,70.3,374.3,68.8z M359.2,63.8c0-7.6,3.5-11.5,8.7-11.5c2.5,0,4.8,1.1,6.4,3V43.7h6.2v31.5H375l-0.4-2.6
				c-1.8,1.8-3.9,3.2-6.9,3.2C362.8,75.8,359.2,71.7,359.2,63.8"/>
			<path class="st7" d="M271.8,106.1c2.6,1.6,5.6,2.7,8.6,2.7c3.1,0,4.8-1.3,4.8-3.2c0-5.5-15.8-1.8-15.8-12.9
				c0-4.8,3.9-8.7,10.7-8.7c3.8,0,7.2,1,10.5,2.5l-2.3,5c-2.6-1.3-5.3-1.9-7.9-1.9c-2.8,0-4.5,1.3-4.5,3.1c0,5.4,15.8,1.6,15.8,12.9
				c0,4.9-3.8,8.8-11.3,8.8c-4.4,0-8.9-1.5-11.7-3.3L271.8,106.1"/>
			<path class="st7" d="M301.2,100.2h8.9c0-2.8-1.1-4.9-4-4.9C303.7,95.3,301.8,96.9,301.2,100.2z M306,90.8
				c6.5,0,10.1,4.2,10.1,10.3c0,0.9-0.1,2-0.2,2.7h-14.7c0.3,3.8,2.1,5.6,5.4,5.6c2.2,0,4.3-0.8,6.2-1.9l2.6,3.9c-2.8,2-6,3-9.3,3
				c-6.6,0-11.3-4.4-11.3-11.9C294.7,95.2,299.8,90.8,306,90.8"/>
			<path class="st7" d="M320,91.3h5.8l0.4,3.5c1.7-3,3.9-4.1,6.4-4.1c1,0,2,0.2,2.8,0.4l-0.9,5.8c-0.8-0.3-1.8-0.5-3-0.5
				c-2.3,0-3.8,1.4-5.2,4v13.4H320V91.3"/>
			<path class="st7" d="M337.3,91.3h6.1l4.7,15.7h0.1l4.7-15.7h5.9l-7.4,22.5h-6.7L337.3,91.3"/>
			<path class="st7" d="M383.3,90.8c2.7,0,5.5,0.8,8,2.8l-3.1,4c-1.3-1-2.8-1.8-4.7-1.8c-2.9,0-5.3,2.3-5.3,6.6
				c0,4.4,2.3,6.8,5.3,6.8c2,0,3.3-0.7,4.7-1.8l3.4,3.7c-2.5,2.2-5.1,3.3-8.3,3.3c-6.5,0-11.4-4.5-11.4-11.9
				C371.9,95.2,376.7,90.8,383.3,90.8"/>
			<path class="st7" d="M399.4,100.2h8.9c0-2.8-1.1-4.9-4-4.9C401.9,95.3,400,96.9,399.4,100.2z M404.2,90.8
				c6.5,0,10.1,4.2,10.1,10.3c0,0.9-0.1,2-0.3,2.7h-14.7c0.3,3.8,2.1,5.6,5.4,5.6c2.2,0,4.3-0.8,6.2-1.9l2.6,3.9c-2.8,2-6,3-9.3,3
				c-6.6,0-11.3-4.4-11.3-11.9C392.9,95.2,397.9,90.8,404.2,90.8"/>
			<path class="st7" d="M419.2,107.5c2.2,1.2,4.6,2,6.9,2c2.1,0,3.3-0.6,3.3-2c0-3.7-12.1-1.3-12.1-9.6c0-4.6,4.1-7,8.9-7
				c2.4,0,5.2,0.5,8.4,2l-2.3,4.3c-2.2-1-4.6-1.5-6.1-1.5c-1.8,0-3,0.6-3,2c0,3.6,12,1,12,9.5c0,4.7-3.9,7.2-9.2,7.2
				c-3.4,0-6.5-0.9-9.4-2.5L419.2,107.5"/>
			<path class="st7" d="M396.5,5.2h6.3v5.3h-6.3V5.2"/>
			<path class="st7" d="M396.5,14.3h6.3v22.5h-6.3V14.3"/>
			<path class="st7" d="M361.7,82.2h6.3v5.3h-6.3V82.2"/>
			<path class="st7" d="M361.7,91.3h6.3v22.5h-6.3V91.3"/>
		</g>
	</g>
</g>
</svg>
