<?xml version="1.0" encoding="UTF-8"?>
<svg width="100px" height="120px" viewBox="0 0 100 120" version="1.1" xmlns="http://www.w3.org/2000/svg" xmlns:xlink="http://www.w3.org/1999/xlink" focusable="false" pointer-events="none">
    <!-- Generator: sketchtool 51.2 (57519) - http://www.bohemiancoding.com/sketch -->
    <title>55E5A3D6-A32E-4043-9CC8-D2816DC83AB5</title>
    <desc>Created with sketchtool.</desc>
    <defs></defs>
    <g id="Main-Page" stroke="none" stroke-width="1" fill="none" fill-rule="evenodd" pointer-events="none">
        <g transform="translate(-343.000000, -2234.000000)" fill="#ED1C24" id="icon-inventory-drop">
            <path d="M400.039901,2311.32823 C390.962563,2320.40647 375.591568,2321.88173 365.038063,2311.32823 C360.336635,2306.6268 358.017203,2300.43651 358.017203,2294.05399 L358.017203,2293.60063 C358.017203,2287.21811 360.336635,2281.02691 365.038063,2276.32548 C375.591568,2265.77198 390.962563,2267.24905 400.039901,2276.32548 C412.348848,2288.63443 417.540821,2293.82731 417.540821,2293.82731 C417.540821,2293.82731 412.348848,2299.0211 400.039901,2311.32823 Z M417.645095,2258.64503 C399.397025,2240.39696 368.500889,2237.43012 347.286884,2258.64503 C337.838691,2268.09322 333.174439,2280.54181 333.174439,2293.37213 L333.174439,2294.28068 C333.174439,2307.11009 337.838691,2319.55868 347.286884,2329.00778 C368.500889,2350.22087 399.397025,2347.25313 417.645095,2329.00778 C442.388118,2304.26385 452.825561,2293.82731 452.825561,2293.82731 C452.825561,2293.82731 442.388118,2283.38896 417.645095,2258.64503 Z" transform="translate(393.000000, 2293.825561) rotate(-90.000000) translate(-393.000000, -2293.825561) "></path>
        </g>
    </g>
</svg>
