<?xml version="1.0" encoding="UTF-8" standalone="no"?>
<svg
   xmlns:dc="http://purl.org/dc/elements/1.1/"
   xmlns:cc="http://creativecommons.org/ns#"
   xmlns:rdf="http://www.w3.org/1999/02/22-rdf-syntax-ns#"
   xmlns:svg="http://www.w3.org/2000/svg"
   xmlns="http://www.w3.org/2000/svg"
   xmlns:sodipodi="http://sodipodi.sourceforge.net/DTD/sodipodi-0.dtd"
   xmlns:inkscape="http://www.inkscape.org/namespaces/inkscape"
   viewBox="0 0 598.29212 117.6394"
   height="117.6394"
   width="598.29211"
   xml:space="preserve"
   id="svg13937"
   version="1.1"
   sodipodi:docname="CBS_Logo_descriptors_CMYK.trimmed.svg"
   inkscape:version="0.92.1 unknown"><sodipodi:namedview
     pagecolor="#ffffff"
     bordercolor="#666666"
     borderopacity="1"
     objecttolerance="10"
     gridtolerance="10"
     guidetolerance="10"
     inkscape:pageopacity="0"
     inkscape:pageshadow="2"
     inkscape:window-width="640"
     inkscape:window-height="480"
     id="namedview104"
     showgrid="false"
     fit-margin-top="0"
     fit-margin-left="0"
     fit-margin-right="0"
     fit-margin-bottom="0"
     inkscape:zoom="0.58102723"
     inkscape:cx="299.1388"
     inkscape:cy="58.823688"
     inkscape:window-x="0"
     inkscape:window-y="32"
     inkscape:window-maximized="0"
     inkscape:current-layer="svg13937" /><metadata
     id="metadata13943"><rdf:RDF><cc:Work
         rdf:about=""><dc:format>image/svg+xml</dc:format><dc:type
           rdf:resource="http://purl.org/dc/dcmitype/StillImage" /><dc:title /></cc:Work></rdf:RDF></metadata><defs
     id="defs13941" /><g
     transform="matrix(1.3333333,0,0,-1.3333333,-58.847865,176.45572)"
     id="g13945"><g
       transform="scale(0.1)"
       id="g13947"><path
         id="path13949"
         style="fill:#61c9b7;fill-opacity:1;fill-rule:nonzero;stroke:none"
         d="m 1651.42,1036.67 c 80.08,80.09 215.69,93.12 308.81,0 41.47,-41.471 61.94,-96.104 61.94,-152.416 v -3.996 c 0,-56.309 -20.47,-110.945 -61.94,-152.406 -93.12,-93.122 -228.73,-80.09 -308.81,0 -108.61,108.589 -154.41,154.406 -154.41,154.406 0,0 45.8,45.808 154.41,154.412 z M 1185.7,882.266 c 0,0 92.08,-92.086 310.39,-310.395 160.99,-160.992 433.58,-187.18 620.76,0 83.37,83.367 124.51,193.184 124.51,306.383 v 8.023 c 0,113.203 -41.14,223.023 -124.51,306.383 -187.18,187.18 -459.77,160.99 -620.76,0 C 1277.78,974.352 1185.7,882.266 1185.7,882.266 v 0"
         inkscape:connector-curvature="0" /><path
         id="path13951"
         style="fill:#4c9c8f;fill-opacity:1;fill-rule:nonzero;stroke:none"
         d="m 1497.01,882.273 c 0,0 45.8,-45.832 154.41,-154.421 80.08,-80.09 215.69,-93.122 308.81,0 41.47,41.461 61.94,96.097 61.94,152.406 v 2.008 h 219.19 v -4.012 c 0,-113.199 -41.14,-223.016 -124.51,-306.383 -187.18,-187.18 -459.77,-160.992 -620.76,0 -218.31,218.309 -310.38,310.395 -310.38,310.395 l 311.3,0.007"
         inkscape:connector-curvature="0" /><path
         id="path13953"
         style="fill:#ed1c24;fill-opacity:1;fill-rule:nonzero;stroke:none"
         d="m 1185.71,882.266 c 0,0 -45.81,-45.817 -154.41,-154.407 -80.089,-80.097 -215.695,-93.129 -308.816,0 -41.464,41.461 -61.937,96.102 -61.937,152.411 v 3.992 c 0,56.312 20.473,110.941 61.937,152.418 93.121,93.12 228.727,80.09 308.816,0 108.6,-108.606 154.41,-154.414 154.41,-154.414 z m 311.32,0 v 0 c 0,0 -92.09,92.093 -310.4,310.404 -160.99,160.99 -433.583,187.18 -620.767,0 C 482.504,1109.3 441.359,999.488 441.359,886.289 v -8.027 c 0,-113.199 41.145,-223.012 124.504,-306.383 187.184,-187.18 459.777,-160.988 620.767,0 218.31,218.312 310.4,310.387 310.4,310.387"
         inkscape:connector-curvature="0" /><path
         id="path13955"
         style="fill:#c4161d;fill-opacity:1;fill-rule:nonzero;stroke:none"
         d="m 1185.71,882.266 c 0,0 -45.81,-45.817 -154.41,-154.407 -80.089,-80.097 -215.695,-93.129 -308.808,0 -41.472,41.461 -61.941,96.102 -61.941,152.411 v 2.003 H 441.359 v -4.011 c 0,-113.199 41.145,-223.012 124.504,-306.383 187.184,-187.18 459.777,-160.988 620.767,0 218.31,218.312 310.39,310.387 310.39,310.387 h -311.31"
         inkscape:connector-curvature="0" /><path
         id="path13957"
         style="fill:#a61217;fill-opacity:1;fill-rule:nonzero;stroke:none"
         d="m 1497.02,882.27 h -311.31 c 0.01,-0.008 47.66,-47.665 155.65,-155.649 108,107.992 155.65,155.645 155.66,155.649"
         inkscape:connector-curvature="0" /><path
         id="path13959"
         style="fill:#918f90;fill-opacity:1;fill-rule:nonzero;stroke:none"
         d="m 4082.47,1148.83 c 9.25,0 15.26,4.21 15.26,12.61 0,8.13 -6.01,12.19 -15.26,12.19 h -21.29 v -24.8 z m -3.09,40.63 c 9.67,0 14.71,4.9 14.71,12.04 0,6.73 -5.04,11.49 -14.71,11.49 h -18.2 v -23.53 z m -39.21,40.48 h 40.62 c 23.67,0 34.6,-10.93 34.6,-26.34 0,-10.22 -5.6,-16.94 -14.71,-20.87 10.78,-3.36 18.35,-10.78 18.35,-22.69 0,-18.21 -14.28,-28.15 -36.28,-28.15 h -42.58 v 98.05"
         inkscape:connector-curvature="0" /><path
         id="path13961"
         style="fill:#918f90;fill-opacity:1;fill-rule:nonzero;stroke:none"
         d="m 4139.68,1229.94 h 21.15 v -79.71 h 48.75 v -18.34 h -69.9 v 98.05"
         inkscape:connector-curvature="0" /><path
         id="path13963"
         style="fill:#918f90;fill-opacity:1;fill-rule:nonzero;stroke:none"
         d="m 4271.67,1148.14 c 17.23,0 29.27,13.02 29.27,33.05 0,19.61 -11.91,32.64 -29.27,32.64 -17.24,0 -29.14,-13.03 -29.14,-32.64 0,-20.03 12.05,-33.05 29.14,-33.05 z m 0,83.62 c 29.83,0 50.84,-21.15 50.84,-50.57 0,-29.7 -20.87,-51.13 -50.84,-51.13 -29.84,0 -50.85,21.43 -50.85,51.13 0,29.42 21.15,50.57 50.85,50.57"
         inkscape:connector-curvature="0" /><path
         id="path13965"
         style="fill:#918f90;fill-opacity:1;fill-rule:nonzero;stroke:none"
         d="m 4388.88,1148.14 c 17.22,0 29.26,13.02 29.26,33.05 0,19.61 -11.9,32.64 -29.26,32.64 -17.24,0 -29.14,-13.03 -29.14,-32.64 0,-20.03 12.05,-33.05 29.14,-33.05 z m 0,83.62 c 29.83,0 50.84,-21.15 50.84,-50.57 0,-29.7 -20.87,-51.13 -50.84,-51.13 -29.85,0 -50.85,21.43 -50.85,51.13 0,29.42 21.15,50.57 50.85,50.57"
         inkscape:connector-curvature="0" /><path
         id="path13967"
         style="fill:#918f90;fill-opacity:1;fill-rule:nonzero;stroke:none"
         d="m 4493.58,1149.12 c 20.6,0 30.96,12.18 30.96,32.07 0,19.33 -11.06,31.52 -30.96,31.52 h -12.59 v -63.59 z m -33.75,80.82 h 32.22 c 35.02,0 53.93,-18.07 53.93,-48.61 0,-31.24 -17.65,-49.44 -53.93,-49.44 h -32.22 v 98.05"
         inkscape:connector-curvature="0" /><path
         id="path13969"
         style="fill:#918f90;fill-opacity:1;fill-rule:nonzero;stroke:none"
         d="m 4081.07,1022.12 c 11.34,0 16.66,6.17 16.66,14.57 0,8.26 -5.32,14.29 -16.52,14.29 h -19.89 v -28.86 z m -40.9,45.81 h 41.04 c 28.16,0 37.82,-15.41 37.82,-31.1 0,-15.55 -9.8,-31.38 -37.68,-31.38 h -20.03 v -35.579 h -21.15 v 98.059"
         inkscape:connector-curvature="0" /><path
         id="path13971"
         style="fill:#918f90;fill-opacity:1;fill-rule:nonzero;stroke:none"
         d="m 4136.73,1067.93 h 21.15 v -79.707 h 48.74 v -18.352 h -69.89 v 98.059"
         inkscape:connector-curvature="0" /><path
         id="path13973"
         style="fill:#918f90;fill-opacity:1;fill-rule:nonzero;stroke:none"
         d="m 4254.24,1004.47 h 26.61 l -13.16,39.92 h -0.29 z m 1.26,63.46 h 24.24 l 35.29,-98.059 h -22.7 l -6.01,18.352 h -37.4 l -6.03,-18.352 h -22.83 l 35.44,98.059"
         inkscape:connector-curvature="0" /><path
         id="path13975"
         style="fill:#918f90;fill-opacity:1;fill-rule:nonzero;stroke:none"
         d="m 4337.43,995.645 c 8.68,-5.325 18.91,-8.965 28.85,-8.965 10.51,0 16.11,4.343 16.11,10.648 0,18.352 -52.95,6.022 -52.95,43.142 0,16.11 13.17,29.28 36,29.28 12.75,0 24.24,-3.23 35.17,-8.41 l -7.86,-16.67 c -8.68,4.35 -17.78,6.45 -26.47,6.45 -9.39,0 -14.98,-4.48 -14.98,-10.37 0,-18.07 52.95,-5.32 52.95,-43.145 0,-16.527 -12.61,-29.554 -37.82,-29.554 -14.71,0 -29.7,5.047 -39.09,10.929 l 10.09,16.665"
         inkscape:connector-curvature="0" /><path
         id="path13977"
         style="fill:#918f90;fill-opacity:1;fill-rule:nonzero;stroke:none"
         d="m 4424.21,1067.93 h 21.29 l 29.56,-41.88 29.7,41.88 h 21 v -98.059 h -20.16 v 67.799 l -30.54,-42.303 -30.68,42.303 v -67.799 h -20.17 v 98.059"
         inkscape:connector-curvature="0" /><path
         id="path13979"
         style="fill:#918f90;fill-opacity:1;fill-rule:nonzero;stroke:none"
         d="m 4575.66,1004.47 h 26.62 l -13.17,39.92 h -0.28 z m 1.26,63.46 h 24.24 l 35.3,-98.059 h -22.7 l -6.02,18.352 h -37.4 l -6.02,-18.352 h -22.84 l 35.44,98.059"
         inkscape:connector-curvature="0" /><path
         id="path13981"
         style="fill:#918f90;fill-opacity:1;fill-rule:nonzero;stroke:none"
         d="m 4046.05,833.637 c 8.69,-5.321 18.91,-8.965 28.85,-8.965 10.51,0 16.12,4.348 16.12,10.644 0,18.352 -52.95,6.028 -52.95,43.153 0,16.105 13.16,29.269 35.99,29.269 12.76,0 24.24,-3.222 35.17,-8.402 l -7.85,-16.672 c -8.68,4.344 -17.79,6.445 -26.48,6.445 -9.38,0 -14.98,-4.48 -14.98,-10.363 0,-18.078 52.95,-5.324 52.95,-43.144 0,-16.536 -12.61,-29.563 -37.82,-29.563 -14.71,0 -29.7,5.051 -39.08,10.93 l 10.08,16.668"
         inkscape:connector-curvature="0" /><path
         id="path13983"
         style="fill:#918f90;fill-opacity:1;fill-rule:nonzero;stroke:none"
         d="m 4157.95,887.148 h -32.35 v 18.77 h 85.86 v -18.77 h -32.36 v -79.281 h -21.15 v 79.281"
         inkscape:connector-curvature="0" /><path
         id="path13985"
         style="fill:#918f90;fill-opacity:1;fill-rule:nonzero;stroke:none"
         d="m 4227.75,905.918 h 71.44 V 887.43 h -50.28 v -21.575 h 44.82 v -16.386 h -44.82 v -23.117 h 50.84 v -18.485 h -72 v 98.051"
         inkscape:connector-curvature="0" /><path
         id="path13987"
         style="fill:#918f90;fill-opacity:1;fill-rule:nonzero;stroke:none"
         d="m 4322,905.918 h 21.29 l 29.55,-41.879 29.7,41.879 h 21.01 v -98.051 h -20.17 v 67.797 l -30.54,-42.309 -30.67,42.309 V 807.867 H 4322 v 98.051"
         inkscape:connector-curvature="0" /><path
         id="path13989"
         style="fill:#918f90;fill-opacity:1;fill-rule:nonzero;stroke:none"
         d="m 4531.74,907.738 c 13.59,0 25.36,-4.48 35.58,-12.605 l -11.63,-14.567 c -6.72,5.465 -14,8.965 -23.67,8.965 -18.06,0 -29.98,-12.605 -29.98,-32.086 0,-20.164 11.63,-33.191 29.98,-33.191 9.94,0 17.93,3.641 24.38,10.086 l 12.6,-13.445 c -10.5,-9.805 -22.69,-14.856 -37.96,-14.856 -29.84,0 -50.42,21.574 -50.42,51.406 0,29.004 21.15,50.293 51.12,50.293"
         inkscape:connector-curvature="0" /><path
         id="path13991"
         style="fill:#918f90;fill-opacity:1;fill-rule:nonzero;stroke:none"
         d="m 4585.71,905.918 h 71.44 V 887.43 h -50.28 v -21.575 h 44.82 v -16.386 h -44.82 v -23.117 h 50.84 v -18.485 h -72 v 98.051"
         inkscape:connector-curvature="0" /><path
         id="path13993"
         style="fill:#918f90;fill-opacity:1;fill-rule:nonzero;stroke:none"
         d="m 4679.96,905.918 h 21.15 v -79.703 h 48.75 v -18.348 h -69.9 v 98.051"
         inkscape:connector-curvature="0" /><path
         id="path13995"
         style="fill:#918f90;fill-opacity:1;fill-rule:nonzero;stroke:none"
         d="m 4766.86,905.918 h 21.15 v -79.703 h 48.75 v -18.348 h -69.9 v 98.051"
         inkscape:connector-curvature="0" /><path
         id="path13997"
         style="fill:#918f90;fill-opacity:1;fill-rule:nonzero;stroke:none"
         d="m 4861.74,833.637 c 8.68,-5.321 18.9,-8.965 28.86,-8.965 10.5,0 16.1,4.348 16.1,10.644 0,18.352 -52.95,6.028 -52.95,43.153 0,16.105 13.17,29.269 36.01,29.269 12.74,0 24.22,-3.222 35.15,-8.402 l -7.84,-16.672 c -8.68,4.344 -17.79,6.445 -26.47,6.445 -9.39,0 -14.99,-4.48 -14.99,-10.363 0,-18.078 52.94,-5.324 52.94,-43.144 0,-16.536 -12.6,-29.563 -37.82,-29.563 -14.7,0 -29.69,5.051 -39.08,10.93 l 10.09,16.668"
         inkscape:connector-curvature="0" /><path
         id="path13999"
         style="fill:#918f90;fill-opacity:1;fill-rule:nonzero;stroke:none"
         d="m 4087.24,662.102 c 17.22,0 29.26,13.027 29.26,33.058 0,19.61 -11.9,32.641 -29.26,32.641 -17.24,0 -29.14,-13.031 -29.14,-32.641 0,-20.031 12.05,-33.058 29.14,-33.058 z m 0,83.628 c 29.83,0 50.84,-21.152 50.84,-50.57 0,-29.699 -20.87,-51.129 -50.84,-51.129 -29.85,0 -50.85,21.43 -50.85,51.129 0,29.418 21.15,50.57 50.85,50.57"
         inkscape:connector-curvature="0" /><path
         id="path14001"
         style="fill:#918f90;fill-opacity:1;fill-rule:nonzero;stroke:none"
         d="m 4201.04,698.102 c 11.22,0 16.67,6.16 16.67,14.57 0,8.398 -5.6,14.289 -16.52,14.289 h -21.85 v -28.859 z m -42.86,45.796 h 43.15 c 28.02,0 37.67,-15.398 37.67,-31.089 0,-11.489 -5.74,-21.989 -17.93,-27.18 l 18.78,-39.777 h -22.83 l -15.14,36.418 h -22.54 v -36.418 h -21.16 v 98.046"
         inkscape:connector-curvature="0" /><path
         id="path14003"
         style="fill:#918f90;fill-opacity:1;fill-rule:nonzero;stroke:none"
         d="m 4306.16,745.73 c 14.57,0 26.2,-5.05 36.14,-12.191 l -11.06,-14.289 c -7.15,5.039 -15.13,8.262 -24.51,8.262 -18.35,0 -30.12,-13.442 -30.12,-32.211 0,-20.313 11.2,-33.063 30.12,-33.063 6.58,0 12.61,1.403 17.09,4.063 v 19.609 h -22.28 v 14.43 h 41.6 v -44.828 c -9.8,-7.141 -22.54,-11.481 -37.11,-11.481 -31.1,0 -50.99,21.297 -50.99,51.399 0,28.308 19.89,50.3 51.12,50.3"
         inkscape:connector-curvature="0" /><path
         id="path14005"
         style="fill:#918f90;fill-opacity:1;fill-rule:nonzero;stroke:none"
         d="m 4391.3,680.449 h 26.61 l -13.16,39.93 h -0.29 z m 1.26,63.449 h 24.24 l 35.29,-98.046 h -22.7 l -6.01,18.347 h -37.4 l -6.03,-18.347 h -22.83 l 35.44,98.046"
         inkscape:connector-curvature="0" /><path
         id="path14007"
         style="fill:#918f90;fill-opacity:1;fill-rule:nonzero;stroke:none"
         d="m 4467.75,743.898 h 20.17 l 43.7,-64.429 v 64.429 h 20.18 v -98.046 h -20.18 L 4487.92,710 v -64.148 h -20.17 v 98.046"
         inkscape:connector-curvature="0" /><path
         id="path14009"
         style="fill:#918f90;fill-opacity:1;fill-rule:nonzero;stroke:none"
         d="m 4581.43,671.629 c 8.68,-5.328 18.9,-8.969 28.84,-8.969 10.51,0 16.12,4.352 16.12,10.649 0,18.351 -52.95,6.019 -52.95,43.14 0,16.11 13.16,29.281 35.99,29.281 12.76,0 24.24,-3.23 35.17,-8.41 l -7.85,-16.672 c -8.68,4.34 -17.79,6.442 -26.48,6.442 -9.38,0 -14.98,-4.481 -14.98,-10.36 0,-18.07 52.95,-5.32 52.95,-43.14 0,-16.531 -12.61,-29.559 -37.82,-29.559 -14.71,0 -29.7,5.047 -39.08,10.93 l 10.09,16.668"
         inkscape:connector-curvature="0" /><path
         id="path14011"
         style="fill:#918f90;fill-opacity:1;fill-rule:nonzero;stroke:none"
         d="m 4064.54,529.328 c -5.88,-3.777 -9.94,-9.098 -9.94,-15.969 0,-8.687 6.86,-14.699 18.35,-14.699 7.42,0 14.14,2.379 19.46,6.578 -9.8,7.563 -19.19,15.684 -27.87,24.09 z m -9.67,10.652 c -3.91,5.45 -6.58,11.481 -6.58,18.481 0,14.148 12.05,25.219 28.44,25.219 12.46,0 21.84,-5.75 28.99,-13.719 l -13.31,-11.223 c -4.48,4.774 -9.66,7.711 -14.98,7.711 -6.02,0 -9.53,-4.199 -9.53,-8.961 0,-5.457 3.93,-10.09 8.13,-14.429 8.4,-8.27 17.37,-15.981 26.89,-23.528 2.1,5.18 3.22,11.059 3.22,17.508 h 18.49 c 0,-10.23 -2.66,-20.027 -7.42,-28.437 5.32,-3.93 10.92,-7.84 16.53,-11.774 l -10.93,-14 c -5.46,3.781 -11.06,7.844 -16.67,11.902 -8.96,-7.839 -20.87,-12.742 -34.6,-12.742 -22.55,0 -35.72,14 -35.72,29.551 0,12.75 8.27,22.141 19.05,28.441"
         inkscape:connector-curvature="0" /><path
         id="path14013"
         style="fill:#918f90;fill-opacity:1;fill-rule:nonzero;stroke:none"
         d="m 4213.51,563.09 h -32.37 v 18.769 h 85.87 V 563.09 h -32.35 v -79.289 h -21.15 v 79.289"
         inkscape:connector-curvature="0" /><path
         id="path14015"
         style="fill:#918f90;fill-opacity:1;fill-rule:nonzero;stroke:none"
         d="m 4283.3,483.801 h 21.1484 v 98.0586 H 4283.3 Z"
         inkscape:connector-curvature="0" /><path
         id="path14017"
         style="fill:#918f90;fill-opacity:1;fill-rule:nonzero;stroke:none"
         d="m 4333.84,509.578 c 8.68,-5.328 18.9,-8.969 28.85,-8.969 10.5,0 16.11,4.352 16.11,10.653 0,18.347 -52.95,6.019 -52.95,43.136 0,16.114 13.16,29.282 36,29.282 12.75,0 24.23,-3.231 35.16,-8.399 l -7.85,-16.672 c -8.68,4.332 -17.78,6.442 -26.47,6.442 -9.39,0 -14.98,-4.481 -14.98,-10.371 0,-18.059 52.94,-5.321 52.94,-43.141 0,-16.527 -12.6,-29.551 -37.82,-29.551 -14.7,0 -29.7,5.043 -39.08,10.922 l 10.09,16.668"
         inkscape:connector-curvature="0" /><path
         id="path14019"
         style="fill:#918f90;fill-opacity:1;fill-rule:nonzero;stroke:none"
         d="m 4424.49,509.578 c 8.68,-5.328 18.91,-8.969 28.86,-8.969 10.51,0 16.1,4.352 16.1,10.653 0,18.347 -52.95,6.019 -52.95,43.136 0,16.114 13.18,29.282 36.01,29.282 12.74,0 24.23,-3.231 35.16,-8.399 l -7.85,-16.672 c -8.68,4.332 -17.79,6.442 -26.47,6.442 -9.39,0 -14.99,-4.481 -14.99,-10.371 0,-18.059 52.95,-5.321 52.95,-43.141 0,-16.527 -12.61,-29.551 -37.82,-29.551 -14.71,0 -29.7,5.043 -39.09,10.922 l 10.09,16.668"
         inkscape:connector-curvature="0" /><path
         id="path14021"
         style="fill:#918f90;fill-opacity:1;fill-rule:nonzero;stroke:none"
         d="m 4510.12,581.859 h 21.29 V 521.07 c 0,-13.308 8.26,-20.879 20.16,-20.879 11.63,0 20.04,7.571 20.04,20.879 v 60.789 h 21.29 V 521.07 c 0,-26.34 -17.24,-39.082 -41.33,-39.082 -24.23,0 -41.45,12.742 -41.45,39.082 v 60.789"
         inkscape:connector-curvature="0" /><path
         id="path14023"
         style="fill:#918f90;fill-opacity:1;fill-rule:nonzero;stroke:none"
         d="m 4617.16,581.859 h 71.43 v -18.5 h -50.28 v -21.558 h 44.82 V 525.41 h -44.82 v -23.109 h 50.85 v -18.5 h -72 v 98.058"
         inkscape:connector-curvature="0" /><path
         id="path14025"
         style="fill:#918f90;fill-opacity:1;fill-rule:nonzero;stroke:none"
         d="m 4715.26,509.578 c 8.69,-5.328 18.91,-8.969 28.85,-8.969 10.51,0 16.11,4.352 16.11,10.653 0,18.347 -52.94,6.019 -52.94,43.136 0,16.114 13.16,29.282 35.99,29.282 12.76,0 24.24,-3.231 35.17,-8.399 l -7.85,-16.672 c -8.69,4.332 -17.79,6.442 -26.48,6.442 -9.38,0 -14.98,-4.481 -14.98,-10.371 0,-18.059 52.95,-5.321 52.95,-43.141 0,-16.527 -12.61,-29.551 -37.82,-29.551 -14.71,0 -29.7,5.043 -39.08,10.922 l 10.08,16.668"
         inkscape:connector-curvature="0" /><path
         id="path14027"
         style="fill:#444142;fill-opacity:1;fill-rule:nonzero;stroke:none"
         d="m 2566.33,1284.76 c 30.39,0 56.71,-10.03 79.57,-28.19 l -25.99,-32.58 c -15.04,12.22 -31.33,20.05 -52.94,20.05 -40.41,0 -67.04,-28.2 -67.04,-71.74 0,-45.11 25.99,-74.25 67.04,-74.25 22.23,0 40.1,8.15 54.5,22.56 l 28.19,-30.07 c -23.49,-21.93 -50.74,-33.2 -84.89,-33.2 -66.73,0 -112.77,48.23 -112.77,114.96 0,64.85 47.3,112.46 114.33,112.46"
         inkscape:connector-curvature="0" /><path
         id="path14029"
         style="fill:#444142;fill-opacity:1;fill-rule:nonzero;stroke:none"
         d="m 2736.66,1090.86 c 13.47,0 24.12,5.94 31.33,14.41 v 31.63 c -26.01,-1.56 -50.44,-8.14 -50.44,-28.82 0,-10.34 7.52,-17.22 19.11,-17.22 z m 31.33,71.73 V 1177 c 0,12.22 -7.21,19.42 -22.87,19.42 -15.98,0 -32.89,-6.26 -53.88,-16.6 l -16.29,34.46 c 22.86,11.59 49.18,19.42 72.35,19.42 48.25,0 67.36,-23.81 67.36,-58.27 v -69.86 c 0,-9.08 5.01,-12.84 13.47,-12.84 v -32.26 c -32.27,0 -45.42,4.7 -55.13,20.67 -13.79,-15.04 -29.45,-23.8 -52.32,-23.8 -29.13,0 -49.81,18.16 -49.81,44.79 0,36.66 34.15,56.07 97.12,60.46"
         inkscape:connector-curvature="0" /><path
         id="path14031"
         style="fill:#444142;fill-opacity:1;fill-rule:nonzero;stroke:none"
         d="m 2855.49,1229.94 h 44.48 l 2.2,-19.42 c 12.21,12.84 29.75,23.5 50.74,23.5 37.91,0 53.57,-23.18 53.57,-61.09 v -111.52 h -46.68 v 112.46 c 0,15.04 -6.26,24.74 -21.62,24.74 -13.46,0 -25.68,-6.89 -35.7,-19.1 v -118.1 h -46.99 v 168.53"
         inkscape:connector-curvature="0" /><path
         id="path14033"
         style="fill:#444142;fill-opacity:1;fill-rule:nonzero;stroke:none"
         d="m 3100.72,1090.86 c 13.47,0 24.12,5.94 31.33,14.41 v 31.63 c -26.01,-1.56 -50.44,-8.14 -50.44,-28.82 0,-10.34 7.52,-17.22 19.11,-17.22 z m 31.33,71.73 V 1177 c 0,12.22 -7.21,19.42 -22.87,19.42 -15.98,0 -32.89,-6.26 -53.89,-16.6 l -16.29,34.46 c 22.88,11.59 49.19,19.42 72.37,19.42 48.24,0 67.35,-23.81 67.35,-58.27 v -69.86 c 0,-9.08 5.01,-12.84 13.48,-12.84 v -32.26 c -32.28,0 -45.43,4.7 -55.14,20.67 -13.79,-15.04 -29.45,-23.8 -52.31,-23.8 -29.14,0 -49.82,18.16 -49.82,44.79 0,36.66 34.15,56.07 97.12,60.46"
         inkscape:connector-curvature="0" /><path
         id="path14035"
         style="fill:#444142;fill-opacity:1;fill-rule:nonzero;stroke:none"
         d="m 3324.14,1109.65 v 71.11 c -10.02,10.96 -20.99,16.92 -34.45,16.92 -21.62,0 -32.27,-17.55 -32.27,-50.13 0,-32.89 10.65,-54.19 32.27,-54.19 13.78,0 24.12,5.01 34.45,16.29 z m -113.4,37.9 c 0,57.02 26.32,86.15 65.16,86.15 18.48,0 35.71,-8.46 48.24,-22.55 v 86.77 h 46.68 v -236.51 h -41.35 l -2.82,19.73 c -13.15,-13.78 -29.13,-23.8 -51.69,-23.8 -37.59,0 -64.22,31 -64.22,90.21"
         inkscape:connector-curvature="0" /><path
         id="path14037"
         style="fill:#444142;fill-opacity:1;fill-rule:nonzero;stroke:none"
         d="m 3551.19,1090.86 c 13.48,0 24.12,5.94 31.33,14.41 v 31.63 c -26,-1.56 -50.44,-8.14 -50.44,-28.82 0,-10.34 7.52,-17.22 19.11,-17.22 z m 31.33,71.73 V 1177 c 0,12.22 -7.21,19.42 -22.87,19.42 -15.98,0 -32.89,-6.26 -53.88,-16.6 l -16.29,34.46 c 22.87,11.59 49.18,19.42 72.37,19.42 48.24,0 67.35,-23.81 67.35,-58.27 v -69.86 c 0,-9.08 5.01,-12.84 13.47,-12.84 v -32.26 c -32.27,0 -45.42,4.7 -55.14,20.67 -13.78,-15.04 -29.44,-23.8 -52.32,-23.8 -29.13,0 -49.8,18.16 -49.8,44.79 0,36.66 34.14,56.07 97.11,60.46"
         inkscape:connector-curvature="0" /><path
         id="path14039"
         style="fill:#444142;fill-opacity:1;fill-rule:nonzero;stroke:none"
         d="m 3670.02,1229.94 h 44.48 l 2.2,-19.42 c 12.22,12.84 29.76,23.5 50.74,23.5 37.91,0 53.58,-23.18 53.58,-61.09 v -111.52 h -46.68 v 112.46 c 0,15.04 -6.27,24.74 -21.63,24.74 -13.46,0 -25.68,-6.89 -35.7,-19.1 v -118.1 h -46.99 v 168.53"
         inkscape:connector-curvature="0" /><path
         id="path14041"
         style="fill:#444142;fill-opacity:1;fill-rule:nonzero;stroke:none"
         d="m 2555.06,810.512 c 20.68,0 34.14,9.394 34.14,28.195 0,18.164 -13.46,27.254 -34.14,27.254 h -47.61 v -55.449 z m -6.89,90.843 c 21.61,0 32.89,10.969 32.89,26.946 0,15.035 -11.28,25.683 -32.89,25.683 h -40.72 v -52.629 z m -87.72,90.536 h 90.85 c 52.94,0 77.38,-24.434 77.38,-58.895 0,-22.863 -12.53,-37.902 -32.89,-46.672 24.12,-7.519 41.03,-24.121 41.03,-50.754 0,-40.722 -31.95,-62.968 -81.13,-62.968 h -95.24 v 219.289"
         inkscape:connector-curvature="0" /><path
         id="path14043"
         style="fill:#444142;fill-opacity:1;fill-rule:nonzero;stroke:none"
         d="m 2669.91,772.602 h 46.9805 v 236.52 H 2669.91 Z"
         inkscape:connector-curvature="0" /><path
         id="path14045"
         style="fill:#444142;fill-opacity:1;fill-rule:nonzero;stroke:none"
         d="m 2831.47,803.93 c 23.5,0 36.97,21.3 36.97,54.199 0,31.012 -14.42,51.375 -36.97,51.375 -22.87,0 -37.59,-20.363 -37.59,-51.375 0,-32.899 13.16,-54.199 37.59,-54.199 z m 0,140.972 c 48.25,0 84.58,-34.457 84.58,-86.461 0,-55.449 -34.15,-89.91 -84.58,-89.91 -50.75,0 -84.89,34.461 -84.89,89.91 0,52.004 36.34,86.461 84.89,86.461"
         inkscape:connector-curvature="0" /><path
         id="path14047"
         style="fill:#444142;fill-opacity:1;fill-rule:nonzero;stroke:none"
         d="m 3022.01,803.93 c 23.5,0 36.96,21.3 36.96,54.199 0,31.012 -14.41,51.375 -36.96,51.375 -22.87,0 -37.6,-20.363 -37.6,-51.375 0,-32.899 13.17,-54.199 37.6,-54.199 z m 0,140.972 c 48.24,0 84.58,-34.457 84.58,-86.461 0,-55.449 -34.15,-89.91 -84.58,-89.91 -50.75,0 -84.89,34.461 -84.89,89.91 0,52.004 36.34,86.461 84.89,86.461"
         inkscape:connector-curvature="0" /><path
         id="path14049"
         style="fill:#444142;fill-opacity:1;fill-rule:nonzero;stroke:none"
         d="m 3242.52,820.844 v 71.121 c -10.02,10.961 -20.99,16.914 -34.45,16.914 -21.62,0 -32.27,-17.547 -32.27,-50.125 0,-32.891 10.65,-54.199 32.27,-54.199 13.78,0 24.12,5.011 34.45,16.289 z m -113.4,37.91 c 0,57.012 26.32,86.148 65.16,86.148 18.48,0 35.71,-8.457 48.24,-22.554 v 86.772 h 46.68 V 772.602 h -41.35 l -2.82,19.738 c -13.15,-13.781 -29.13,-23.809 -51.69,-23.809 -37.59,0 -64.22,31.016 -64.22,90.223"
         inkscape:connector-curvature="0" /><path
         id="path14051"
         style="fill:#444142;fill-opacity:1;fill-rule:nonzero;stroke:none"
         d="m 2473.61,541.449 c 19.42,-11.898 42.29,-20.051 64.53,-20.051 23.5,0 36.03,9.711 36.03,23.813 0,41.027 -118.41,13.469 -118.41,96.48 0,36.028 29.44,65.469 80.5,65.469 28.51,0 54.19,-7.199 78.64,-18.801 l -17.55,-37.269 c -19.42,9.711 -39.79,14.41 -59.21,14.41 -20.99,0 -33.52,-10.031 -33.52,-23.18 0,-40.41 118.42,-11.91 118.42,-96.492 0,-36.969 -28.19,-66.098 -84.58,-66.098 -32.9,0 -66.41,11.282 -87.4,24.43 l 22.55,37.289"
         inkscape:connector-curvature="0" /><path
         id="path14053"
         style="fill:#444142;fill-opacity:1;fill-rule:nonzero;stroke:none"
         d="m 2694.16,585.621 h 66.72 c 0,20.668 -8.15,36.957 -29.77,36.957 -18.16,0 -32.57,-12.527 -36.95,-36.957 z m 35.7,70.789 c 48.56,0 75.5,-31.64 75.5,-77.058 0,-6.582 -0.94,-15.352 -1.87,-20.364 h -110.27 c 2.19,-28.187 15.66,-41.968 40.72,-41.968 16.6,0 32.26,5.628 46.36,14.402 l 19.74,-29.442 c -20.67,-14.73 -44.81,-22.25 -69.86,-22.25 -49.49,0 -84.58,32.891 -84.58,89.282 0,53.886 37.6,87.398 84.26,87.398"
         inkscape:connector-curvature="0" /><path
         id="path14055"
         style="fill:#444142;fill-opacity:1;fill-rule:nonzero;stroke:none"
         d="m 2834.91,652.34 h 43.55 l 3.13,-26 c 12.84,22.551 29.13,30.699 47.92,30.699 7.83,0 14.73,-1.25 20.69,-3.129 l -6.9,-43.23 c -5.96,2.191 -13.15,3.761 -22.25,3.761 -17.22,0 -28.81,-10.339 -39.15,-29.769 V 483.801 h -46.99 V 652.34"
         inkscape:connector-curvature="0" /><path
         id="path14057"
         style="fill:#444142;fill-opacity:1;fill-rule:nonzero;stroke:none"
         d="m 2964.71,652.34 h 46.05 l 35.4,-117.781 h 0.63 l 35.4,117.781 h 44.17 L 3070.6,483.801 h -50.13 l -55.76,168.539"
         inkscape:connector-curvature="0" /><path
         id="path14059"
         style="fill:#444142;fill-opacity:1;fill-rule:nonzero;stroke:none"
         d="m 3309.57,656.102 c 20.36,0 41.36,-6.262 59.83,-20.993 l -23.49,-30.078 c -9.4,7.52 -20.99,13.168 -35.08,13.168 -21.62,0 -39.47,-17.238 -39.47,-49.187 0,-33.203 17.22,-51.063 39.47,-51.063 15.03,0 25.06,5.012 35.08,13.781 l 25.69,-27.57 c -18.48,-16.281 -37.91,-24.43 -62.03,-24.43 -48.87,0 -85.52,33.532 -85.52,89.282 0,53.886 36.34,87.09 85.52,87.09"
         inkscape:connector-curvature="0" /><path
         id="path14061"
         style="fill:#444142;fill-opacity:1;fill-rule:nonzero;stroke:none"
         d="m 3430.48,585.621 h 66.72 c 0,20.668 -8.15,36.957 -29.76,36.957 -18.17,0 -32.58,-12.527 -36.96,-36.957 z m 35.71,70.789 c 48.56,0 75.49,-31.64 75.49,-77.058 0,-6.582 -0.94,-15.352 -1.88,-20.364 h -110.26 c 2.19,-28.187 15.66,-41.968 40.72,-41.968 16.61,0 32.27,5.628 46.36,14.402 l 19.74,-29.442 c -20.68,-14.73 -44.8,-22.25 -69.86,-22.25 -49.5,0 -84.58,32.891 -84.58,89.282 0,53.886 37.59,87.398 84.27,87.398"
         inkscape:connector-curvature="0" /><path
         id="path14063"
         style="fill:#444142;fill-opacity:1;fill-rule:nonzero;stroke:none"
         d="m 3578.85,530.801 c 16.29,-9.09 34.46,-15.039 51.69,-15.039 15.66,0 25.06,4.687 25.06,15.347 0,27.571 -90.84,9.391 -90.84,72.36 0,34.461 31,52.633 67.03,52.633 18.17,0 38.84,-3.762 63.28,-15.043 l -16.92,-32.27 c -16.28,7.84 -34.46,11.602 -45.42,11.602 -13.78,0 -22.55,-4.7 -22.55,-15.032 0,-27.257 90.21,-7.839 90.21,-71.429 0,-35.09 -29.13,-54.2 -68.92,-54.2 -25.68,0 -48.86,6.579 -70.47,18.489 l 17.85,32.582"
         inkscape:connector-curvature="0" /><path
         id="path14065"
         style="fill:#444142;fill-opacity:1;fill-rule:nonzero;stroke:none"
         d="m 3408.57,1258.13 h 47 v 39.7852 h -47 z"
         inkscape:connector-curvature="0" /><path
         id="path14067"
         style="fill:#444142;fill-opacity:1;fill-rule:nonzero;stroke:none"
         d="m 3408.57,1061.41 h 47 v 168.535 h -47 z"
         inkscape:connector-curvature="0" /><path
         id="path14069"
         style="fill:#444142;fill-opacity:1;fill-rule:nonzero;stroke:none"
         d="m 3147.71,680.52 h 46.9883 v 39.7891 H 3147.71 Z"
         inkscape:connector-curvature="0" /><path
         id="path14071"
         style="fill:#444142;fill-opacity:1;fill-rule:nonzero;stroke:none"
         d="m 3147.71,483.801 h 46.9883 V 652.34 H 3147.71 Z"
         inkscape:connector-curvature="0" /></g></g></svg>